<svg width="358" height="361" viewBox="0 0 358 361" fill="none" xmlns="http://www.w3.org/2000/svg">
<path d="M23.3514 87.2915L21.6439 86.25L23.3514 87.2915ZM191.852 3.29211L191.628 5.27959L191.852 3.29211ZM290.852 284.792L289.318 283.508L288.216 284.825L289.351 286.114L290.852 284.792ZM357.352 360.292L352.798 337.652L335.468 352.916L357.352 360.292ZM36.7517 270.364C30.7591 264.491 24.3723 254.482 18.8327 241.57C13.307 228.69 8.67776 213.046 6.12729 196.007C1.02334 161.907 4.26864 122.418 25.0588 88.3329L21.6439 86.25C0.227847 121.361 -3.02653 161.872 2.17136 196.599C4.77182 213.972 9.49389 229.948 15.1567 243.147C20.8057 256.314 27.4447 266.843 33.952 273.221L36.7517 270.364ZM25.0588 88.3329C61.8362 28.0372 119.38 -2.84227 191.628 5.27959L192.075 1.30463C118.19 -7.00131 59.182 24.7071 21.6439 86.25L25.0588 88.3329ZM191.628 5.27959C205.569 6.84678 289.166 20.1354 322.116 112.51L325.884 111.166C292.13 16.5409 206.431 2.91846 192.075 1.30463L191.628 5.27959ZM322.116 112.51C338.578 158.66 330.416 201.377 318.073 232.643C311.902 248.273 304.698 261.01 299.038 269.837C296.209 274.249 293.768 277.679 292.04 280.001C291.176 281.162 290.49 282.045 290.023 282.635C289.789 282.93 289.61 283.152 289.491 283.298C289.432 283.371 289.387 283.425 289.358 283.46C289.344 283.478 289.333 283.491 289.326 283.499C289.323 283.503 289.321 283.506 289.319 283.507C289.319 283.508 289.318 283.508 289.318 283.509C289.318 283.509 289.318 283.508 290.852 284.792C292.386 286.076 292.387 286.075 292.388 286.073C292.388 286.073 292.389 286.071 292.391 286.069C292.394 286.066 292.397 286.062 292.402 286.056C292.411 286.045 292.425 286.029 292.442 286.008C292.477 285.966 292.527 285.905 292.592 285.824C292.723 285.664 292.913 285.428 293.159 285.118C293.649 284.499 294.36 283.584 295.249 282.39C297.027 280.001 299.521 276.494 302.405 271.996C308.172 263.003 315.508 250.033 321.793 234.112C334.362 202.276 342.774 158.516 325.884 111.166L322.116 112.51ZM289.351 286.114L343.954 348.107L346.956 345.463L292.353 283.47L289.351 286.114Z" fill="#FFD700"/>
</svg>
